<svg width="810" height="809.999993" xmlns="http://www.w3.org/2000/svg" version="1.0" preserveAspectRatio="xMidYMid meet" zoomAndPan="magnify">
 <defs>
  <g id="svg_1"/>
  <clipPath id="23cfdabec9">
   <path id="svg_2" clip-rule="nonzero" d="m92,541l628,0l0,167l-628,0l0,-167zm0,0"/>
  </clipPath>
  <clipPath id="c024ee92ac">
   <path id="svg_3" clip-rule="nonzero" d="m728.99219,564.36328l-322.97266,322.97266l-322.96875,-322.97266l322.96875,-322.97265l322.97266,322.97265zm0,0"/>
  </clipPath>
  <clipPath id="4ed5585a95">
   <path id="svg_4" clip-rule="nonzero" d="m728.99219,564.36328l-322.97266,322.97266l-322.96875,-322.97266l322.96875,-322.97265l322.97266,322.97265zm0,0"/>
  </clipPath>
  <clipPath id="7b46f021be">
   <path id="svg_5" clip-rule="nonzero" d="m728.99219,564.36328l-322.97266,322.97266l-322.96875,-322.97266l322.96875,-322.97265l322.97266,322.97265zm0,0"/>
  </clipPath>
 </defs>
 <g>
  <title>Layer 1</title>
  <g id="svg_8" fill="#000000">
   <g id="svg_9">
    <g id="svg_10">
     <path id="svg_11" d="m625.74731,354.61956c0,31.92969 -5.32422,61.24219 -15.96875,87.9375c-10.63672,26.69922 -25.58984,49.6875 -44.85937,68.96875c-19.27344,19.27344 -42.46094,34.23047 -69.5625,44.875c-27.10547,10.63672 -57.21875,15.95313 -90.34375,15.95313l-165.9375,0l0,-435.45313l165.9375,0c33.125,0 63.23828,5.3711 90.34375,16.10938c27.10156,10.74219 50.28906,25.69922 69.5625,44.875c19.26953,19.16797 34.22265,42.10547 44.85937,68.8125c10.64453,26.69922 15.96875,56.00781 15.96875,87.92187zm-83.10937,0c0,-23.88281 -3.16797,-45.3125 -9.5,-64.28125c-6.32422,-18.97656 -15.46094,-35.03906 -27.40625,-48.1875c-11.9375,-13.15625 -26.39063,-23.24218 -43.35938,-30.26562c-16.96094,-7.03125 -36.07812,-10.54688 -57.35937,-10.54688l-84.625,0l0,306.5625l84.625,0c21.28125,0 40.39843,-3.50781 57.35937,-10.53125c16.96875,-7.03125 31.42188,-17.11718 43.35938,-30.26562c11.94531,-13.15625 21.08203,-29.21875 27.40625,-48.1875c6.33203,-18.96875 9.5,-40.39844 9.5,-64.29688zm0,0"/>
    </g>
   </g>
  </g>
  <g id="svg_12" clip-path="url(#23cfdabec9)">
   <g id="svg_13" clip-path="url(#c024ee92ac)">
    <g id="svg_14" clip-path="url(#4ed5585a95)">
     <g id="svg_15" clip-path="url(#7b46f021be)">
      <path id="svg_16" fill-rule="nonzero" d="m99.125,548.28516c8.875,-8.875 23.28125,-8.875 32.15625,0c151.48828,151.48437 397.99219,151.48437 549.47656,0c8.875,-8.875 23.28125,-8.875 32.15625,0c8.875,8.875 8.875,23.28125 0,32.15625c-41.41797,41.41406 -89.71484,73.50781 -143.57422,95.33984c-52.02734,21.09375 -106.94921,31.76953 -163.28906,31.76953c-56.33594,0 -111.28906,-10.70703 -163.28515,-31.76953c-53.85938,-21.83203 -102.15625,-53.92578 -143.57422,-95.33984c-8.94141,-8.875 -8.94141,-23.28125 -0.06641,-32.15625zm0,0" fill="#000000"/>
     </g>
    </g>
   </g>
  </g>
 </g>
</svg>