<svg width="810" height="809.999993" xmlns="http://www.w3.org/2000/svg" version="1.0" preserveAspectRatio="xMidYMid meet" zoomAndPan="magnify">
 <defs>
  <g id="svg_1"/>
  <clipPath id="cb6d27d32d">
   <path id="svg_2" clip-rule="nonzero" d="m92,541l628,0l0,167l-628,0l0,-167zm0,0"/>
  </clipPath>
  <clipPath id="a7032b6e34">
   <path id="svg_3" clip-rule="nonzero" d="m728.99219,564.36328l-322.97266,322.97266l-322.96875,-322.97266l322.96875,-322.97265l322.97266,322.97265zm0,0"/>
  </clipPath>
  <clipPath id="e7d6bc03b2">
   <path id="svg_4" clip-rule="nonzero" d="m728.99219,564.36328l-322.97266,322.97266l-322.96875,-322.97266l322.96875,-322.97265l322.97266,322.97265zm0,0"/>
  </clipPath>
 </defs>
 <g>
  <title>Layer 1</title>
  <g id="svg_7" fill="#ffffff">
   <g id="svg_8">
    <g id="svg_9">
     <path id="svg_10" d="m631.74731,345.61956c0,31.92969 -5.32422,61.24219 -15.96875,87.9375c-10.63672,26.69922 -25.58984,49.6875 -44.85937,68.96875c-19.27344,19.27344 -42.46094,34.23047 -69.5625,44.875c-27.10547,10.63672 -57.21875,15.95313 -90.34375,15.95313l-165.9375,0l0,-435.45313l165.9375,0c33.125,0 63.23828,5.3711 90.34375,16.10938c27.10156,10.74219 50.28906,25.69922 69.5625,44.875c19.26953,19.16797 34.22265,42.10547 44.85937,68.8125c10.64453,26.69922 15.96875,56.00781 15.96875,87.92187zm-83.10937,0c0,-23.88281 -3.16797,-45.3125 -9.5,-64.28125c-6.32422,-18.97656 -15.46094,-35.03906 -27.40625,-48.1875c-11.9375,-13.15625 -26.39063,-23.24218 -43.35938,-30.26562c-16.96094,-7.03125 -36.07812,-10.54688 -57.35937,-10.54688l-84.625,0l0,306.5625l84.625,0c21.28125,0 40.39843,-3.50781 57.35937,-10.53125c16.96875,-7.03125 31.42188,-17.11718 43.35938,-30.26562c11.94531,-13.15625 21.08203,-29.21875 27.40625,-48.1875c6.33203,-18.96875 9.5,-40.39844 9.5,-64.29688zm0,0"/>
    </g>
   </g>
  </g>
  <g id="svg_11" clip-path="url(#cb6d27d32d)">
   <g id="svg_12" clip-path="url(#a7032b6e34)">
    <g id="svg_13" clip-path="url(#e7d6bc03b2)">
     <path id="svg_14" fill-rule="nonzero" d="m98.69141,548.27344c8.8789,-8.87891 23.29687,-8.87891 32.17578,0c151.58984,151.58984 398.26562,151.58984 549.85547,0c8.88281,-8.87891 23.29687,-8.87891 32.17968,0c8.88282,8.88281 8.88282,23.29687 0,32.17969c-41.44531,41.44531 -89.77734,73.55859 -143.67578,95.40625c-52.0625,21.10937 -107.02343,31.79296 -163.39843,31.79296c-56.375,0 -111.36719,-10.71484 -163.39844,-31.79296c-53.89844,-21.84766 -102.23047,-53.96094 -143.67578,-95.40625c-8.94532,-8.88282 -8.94532,-23.29688 -0.0625,-32.17969zm0,0" fill="#ffffff"/>
    </g>
   </g>
  </g>
 </g>
</svg>